<?xml version="1.0" encoding="UTF-8" standalone="no"?>
<!-- Created with Inkscape (http://www.inkscape.org/) -->

<svg
   version="1.1"
   id="svg2"
   width="46.666668"
   height="46.666668"
   viewBox="0 0 46.666668 46.666668"
   sodipodi:docname="facebook-icon.eps"
   xmlns:inkscape="http://www.inkscape.org/namespaces/inkscape"
   xmlns:sodipodi="http://sodipodi.sourceforge.net/DTD/sodipodi-0.dtd"
   xmlns="http://www.w3.org/2000/svg"
   xmlns:svg="http://www.w3.org/2000/svg">
  <defs
     id="defs6">
    <clipPath
       clipPathUnits="userSpaceOnUse"
       id="clipPath18">
      <path
         d="M 347.305,175.188 C 347.305,80.0273 270.16,2.88281 175,2.88281 79.8398,2.88281 2.69531,80.0273 2.69531,175.188 c 0,95.16 77.14449,172.304 172.30469,172.304 95.16,0 172.305,-77.144 172.305,-172.304 z"
         id="path16" />
    </clipPath>
  </defs>
  <sodipodi:namedview
     id="namedview4"
     pagecolor="#ffffff"
     bordercolor="#000000"
     borderopacity="0.25"
     inkscape:showpageshadow="2"
     inkscape:pageopacity="0.0"
     inkscape:pagecheckerboard="0"
     inkscape:deskcolor="#d1d1d1" />
  <g
     id="g8"
     inkscape:groupmode="layer"
     inkscape:label="ink_ext_XXXXXX"
     transform="matrix(1.3333333,0,0,-1.3333333,0,46.666667)">
    <g
       id="g10"
       transform="scale(0.1)">
      <g
         id="g12">
        <g
           id="g14"
           clip-path="url(#clipPath18)">
          <path
             d="M 347.305,175.188 C 347.305,80.0273 270.16,2.88281 175,2.88281 79.8398,2.88281 2.69531,80.0273 2.69531,175.188 c 0,95.16 77.14449,172.304 172.30469,172.304 95.16,0 172.305,-77.144 172.305,-172.304"
             style="fill:#ffffff;fill-opacity:1;fill-rule:nonzero;stroke:none"
             id="path20" />
          <path
             d="m 191.262,196.234 c -0.496,-6.222 1.992,-8.718 8.398,-8.582 14.34,0.321 28.699,0.161 43.059,0.161 7.64,0 7.652,0.957 7.562,-4.555 -0.23,-12.406 -5.535,-47.754 -8.445,-47.754 -19.727,0 -27.746,-0.16 -41.602,0.23 -7.027,0.196 -9.261,-2.464 -9.203,-9.379 0.219,-28.0659 -0.023,-109.1441 -0.117,-131.08547 -11.922,-2.35937 -24.254,-3.60156 -36.879,-3.60156 -6.5,0 -12.933,0.33203 -19.262,0.97656 -0.437,30.26177 0.036,104.91017 0.438,134.74647 0.078,5.867 -1.992,8.457 -8.066,8.214 -8.02,-0.32 -16.051,0.071 -24.075,-0.171 -5.0505,-0.149 -6.9489,1.91 -6.8786,6.89 0.1836,13.133 0.1953,26.274 0.0352,39.414 -0.0469,4.43 1.7812,6.098 6.0624,6.004 5.836,-0.125 11.668,0.082 17.504,0.047 16.949,-0.09 15.086,-0.941 15.531,15.328 0.543,19.481 2.129,38.742 10.981,56.707 6.05,12.301 13.531,22.957 26.359,29.055 22.957,10.906 47.309,12.129 72.059,10.676 8.019,-0.457 4.89,-4.867 5.617,-45.645 0.215,-11.855 -9.012,-3.488 -35.488,-8.887 -12.235,-2.484 -20.313,-10.343 -21.786,-23.332 -0.953,-8.437 -1.117,-16.972 -1.804,-25.457"
             style="fill:#1c294e;fill-opacity:1;fill-rule:nonzero;stroke:none"
             id="path22" />
        </g>
      </g>
    </g>
  </g>
</svg>
